#N canvas 426 38 1227 1051 12;
#X obj 855 1012 dac~, f 6;
#X obj 152 148 notein;
#X floatatom 138 192 5 0 0 0 - - - 0;
#X obj 148 228 mtof;
#X floatatom 146 275 5 0 0 0 - - - 0;
#X obj 151 320 +~ 2;
#X floatatom 424 138 5 0 0 0 - - - 0;
#X obj 425 194 mtof;
#X floatatom 423 219 5 0 0 0 - - - 0;
#X obj 201 531 *~;
#X obj 570 492 sigmund~;
#X obj 815 330 bob~;
#X obj 932 327 bp~;
#X obj 430 249 *~;
#X obj 432 327 +~, f 5;
#X obj 791 121 hsl 162 19 50 20000 0 0 empty empty Freq -2 -10 0 12 #ff0400 #000000 #000000 0 1;
#X floatatom 801 173 5 0 0 0 - - - 0;
#X obj 876 831 hsl 162 19 0 1 0 0 empty empty MASTER\ VOLUME -2 -10 0 12 #ffc7c6 #000000 #000000 0 1;
#X floatatom 857 874 5 0 0 0 - - - 0;
#X obj 567 199 hsl 162 19 1 50 0 0 empty empty Float\ Value -2 -10 0 12 #00ff04 #000000 #000000 0 1;
#X floatatom 567 234 5 0 0 0 - - - 0;
#X obj 972 163 hsl 162 19 0 5 0 0 empty empty Q -2 -10 0 12 #9c00ff #000000 #000000 0 1;
#X obj 562 103 hsl 162 19 -1 1 0 0 empty empty Float\ Value\ for\ Multiplier -2 -10 0 12 #c6feff #000000 #000000 0 1;
#X floatatom 562 141 5 0 0 0 - - - 0;
#X obj 428 162 *;
#X floatatom 953 192 5 0 0 0 - - - 0;
#X obj 417 50 tgl 19 0 empty empty empty 0 -10 0 12 #fcfcfc #000000 #000000 0 1;
#X obj 149 361 osc~ 440;
#X obj 162 582 s~ filter;
#X obj 869 171 r~ filter;
#X obj 870 361 +~;
#X obj 871 400 *~ 0.5;
#X obj 30 824 r~ reverb;
#X obj 772 991 *~ 0.1;
#X obj 49 737 hsl 50 19 0 100 0 0 empty empty RVB\ OUT -2 -10 0 12 #9c00ff #000000 #000000 0 1;
#X floatatom 60 776 5 0 0 0 - - - 0;
#X obj 222 738 hsl 70 19 0 3000 0 0 empty empty Cross\ Freq -2 -10 0 12 #c6ffc7 #000000 #000000 0 1;
#X floatatom 219 773 4 0 0 0 - - - 0;
#X obj 143 735 hsl 50 19 0 90 0 0 empty empty Feedback -2 -10 0 12 #00faff #000000 #000000 0 1;
#X floatatom 139 767 5 0 0 0 - - - 0;
#X obj 314 755 hsl 70 19 0 100 0 0 empty empty High\ Freq\ Damp -2 -10 0 12 #e3c6ff #000000 #000000 0 1;
#X floatatom 309 770 5 0 0 0 - - - 0;
#X obj 467 293 osc~;
#X obj 229 314 +~ 4;
#X obj 109 845 rev2~ 0 0 0 0;
#X obj 853 638 *~ 0.5;
#X obj 225 359 osc~ 440;
#X obj 570 289 hsl 162 19 0 1 0 0 empty empty Mod\ Mix -2 -10 0 12 #ff8300 #000000 #000000 0 1;
#X floatatom 558 328 5 0 0 0 - - - 0;
#X obj 498 347 *~;
#X obj 500 386 s~ mod;
#X obj 232 501 r~ mod;
#X obj 409 296 osc~;
#X obj 986 641 hsl 162 19 3000 10000 0 0 empty empty Freq -2 -10 0 12 #ff0400 #000000 #000000 0 1;
#X floatatom 968 693 5 0 0 0 - - - 0;
#X obj 816 514 r~ delay;
#X obj 796 451 s~ delay;
#X obj 664 891 r~ dryout;
#X obj 554 919 r~ wetout;
#X obj 893 448 s~ dryout;
#X obj 696 810 hsl 162 19 0 1 0 0 empty empty DRY\ VOLUME -2 -10 0 12 #ffe3c6 #000000 #000000 0 1;
#X floatatom 765 874 5 0 0 0 - - - 0;
#X obj 527 847 hsl 162 19 0 1 0 0 empty empty WET\ VOLUME -2 -10 0 12 #c7c6ff #000000 #000000 0 1;
#X floatatom 582 881 5 0 0 0 - - - 0;
#X obj 694 953 *~ 0.1;
#X obj 768 936 *~ 0.1;
#X obj 96 516 *~;
#X obj 256 429 hsl 162 19 0 1 0 0 empty empty Dry\ Mix -2 -10 0 12 #ff8300 #000000 #000000 0 1;
#X floatatom 251 467 5 0 0 0 - - - 0;
#X obj 1011 271 hsl 162 19 0 0.5 0 0 empty empty BP\ Mix -2 -10 0 12 #ff8300 #000000 #000000 0 1;
#X floatatom 1019 305 5 0 0 0 - - - 0;
#X obj 570 457 adc~;
#X obj 570 554 mtof;
#X floatatom 572 583 5 0 0 0 - - - 0;
#X floatatom 569 526 5 0 0 0 - - - 0;
#X obj 572 609 s freq;
#X obj 942 239 r freq;
#X obj 932 362 *~;
#X obj 948 271 * 100;
#X floatatom 963 300 5 0 0 0 - - - 0;
#X obj 81 168 + 20;
#X obj 74 131 random 70;
#X obj 834 566 delwrite~ dBuf 210;
#X obj 852 605 delread~ dBuf 210;
#X obj 423 114 random 70;
#X obj 424 84 metro 120 1 msec;
#X obj 46 360 osc~ 440;
#X obj 831 688 lop~ 0;
#X obj 67 96 metro 120 1 msec;
#X text 44 54 sound generation via midi note randomizer;
#X text 452 35 ring modulator multiplier controlled via tempo rate randomizer;
#X text 849 76 high pass filter with moog simulation design;
#X text 731 486 delay line with taps for buffer inputs and outputs;
#X text 186 930 comment;
#X obj 844 722 s~ reverb;
#X obj 157 898 s~ wetout;
#X text 739 752 output mixer with controls for wet (delay + reverb) and dry signals;
#X text 111 672 Simple reverb with controls;
#X text 239 390 dry mix control without ring mod;
#X text 74 210 translates midi into frequency in hertz;
#X text 29 9 Simple Patch Demonstrating Basic Audio Signal Processing Capabilities within Pure Data;
#X text 412 640 sigmund object using information retrieval to derive frequency from audio input signal \, this case \, a hardware audio (analog to digital convertion) device this is controlling the filter of the bandpass filter.;
#X connect 1 0 2 0;
#X connect 2 0 3 0;
#X connect 3 0 4 0;
#X connect 4 0 5 0;
#X connect 4 0 43 0;
#X connect 4 0 86 0;
#X connect 5 0 27 0;
#X connect 6 0 24 0;
#X connect 7 0 8 0;
#X connect 8 0 13 0;
#X connect 9 0 28 0;
#X connect 10 0 74 0;
#X connect 11 0 30 0;
#X connect 12 0 77 0;
#X connect 13 0 42 0;
#X connect 13 0 52 0;
#X connect 14 0 49 0;
#X connect 15 0 16 0;
#X connect 16 0 11 1;
#X connect 17 0 18 0;
#X connect 18 0 33 1;
#X connect 19 0 20 0;
#X connect 20 0 13 1;
#X connect 21 0 25 0;
#X connect 22 0 23 0;
#X connect 23 0 24 1;
#X connect 24 0 7 0;
#X connect 25 0 11 2;
#X connect 26 0 85 0;
#X connect 27 0 9 0;
#X connect 27 0 66 0;
#X connect 29 0 11 0;
#X connect 29 0 12 0;
#X connect 30 0 31 0;
#X connect 31 0 56 0;
#X connect 31 0 59 0;
#X connect 32 0 44 0;
#X connect 33 0 0 0;
#X connect 33 0 0 1;
#X connect 34 0 35 0;
#X connect 35 0 44 1;
#X connect 36 0 37 0;
#X connect 37 0 44 3;
#X connect 38 0 39 0;
#X connect 39 0 44 2;
#X connect 40 0 41 0;
#X connect 41 0 44 4;
#X connect 42 0 14 1;
#X connect 43 0 46 0;
#X connect 44 0 95 0;
#X connect 44 1 95 0;
#X connect 45 0 87 0;
#X connect 46 0 9 0;
#X connect 46 0 66 0;
#X connect 47 0 48 0;
#X connect 48 0 49 1;
#X connect 49 0 50 0;
#X connect 51 0 9 1;
#X connect 52 0 14 0;
#X connect 53 0 54 0;
#X connect 54 0 87 1;
#X connect 55 0 82 0;
#X connect 57 0 65 0;
#X connect 58 0 64 0;
#X connect 60 0 61 0;
#X connect 61 0 65 1;
#X connect 62 0 63 0;
#X connect 63 0 64 1;
#X connect 64 0 33 0;
#X connect 65 0 33 0;
#X connect 66 0 28 0;
#X connect 67 0 68 0;
#X connect 68 0 66 1;
#X connect 69 0 70 0;
#X connect 70 0 77 1;
#X connect 71 0 10 0;
#X connect 72 0 73 0;
#X connect 73 0 75 0;
#X connect 74 0 72 0;
#X connect 76 0 78 0;
#X connect 77 0 30 1;
#X connect 78 0 12 1;
#X connect 78 0 79 0;
#X connect 80 0 2 0;
#X connect 81 0 80 0;
#X connect 83 0 45 0;
#X connect 84 0 6 0;
#X connect 85 0 84 0;
#X connect 86 0 9 0;
#X connect 86 0 66 0;
#X connect 87 0 82 0;
#X connect 87 0 94 0;
#X connect 88 0 81 0;
